<svg id="圖層_1" data-name="圖層 1" xmlns="http://www.w3.org/2000/svg" xmlns:xlink="http://www.w3.org/1999/xlink" viewBox="0 0 1024 1024"><defs><style>.cls-1{fill:#fff;}.cls-2{mask:url(#mask);}.cls-3{fill:#3fbfc7;}.cls-4{fill:#36191c;}.cls-5{fill:#b5a57f;}.cls-6{fill:#152a42;}.cls-7{mask:url(#mask-2);}.cls-8{fill:#3db9c2;}.cls-9{fill:#e4e1d8;}.cls-10{fill:#49282b;}.cls-11{fill:#cc9c75;}.cls-12{fill:none;}.cls-13{filter:url(#luminosity-noclip);}</style><filter id="luminosity-noclip" x="98.36" y="92" width="836.69" height="818" filterUnits="userSpaceOnUse" color-interpolation-filters="sRGB"><feFlood flood-color="#fff" result="bg"/><feBlend in="SourceGraphic" in2="bg"/></filter><mask id="mask" x="98.36" y="92" width="836.69" height="818" maskUnits="userSpaceOnUse"><g class="cls-13"><circle class="cls-1" cx="505" cy="504" r="397"/><path class="cls-1" d="M121.47,511.5A7.5,7.5,0,0,1,114,504c0-31.45-11.36-62.79-4.2-93.17,2-20.74,4.56-34.81,7.7-43,.91-2.39,1.91-5.19,3-8.15,7.71-21.68,20.59-57.93,58-96.41a408.21,408.21,0,0,1,140-119,405.62,405.62,0,0,1,324.76-20h3a46.75,46.75,0,0,0,16.16-2.9c7.33-2.38,16.44-5.33,38.76-5.33,3.53,0,7.36.07,11.39.22,46.4,1.68,89.68,25.47,136.22,74.86,9.5,10.09,19.89,16,29.94,21.68,23.16,13.14,45,25.56,48.16,80.73.54,4.61,3.63,43.81-41.39,76.78C900.48,412.12,895,457.11,895,504a7.5,7.5,0,0,1-7.5,7.5Z"/><path class="cls-1" d="M503.47,107a396.27,396.27,0,0,1,138.25,24.74c.95,0,2,0,3.07,0h1.45c20.36-.25,18.23-8.23,54.83-8.23,3.36,0,7,.07,11.12.21,48.28,1.75,90.62,29.62,131,72.52,32.25,34.23,71.93,22.64,76.09,97.94,0,0,5.8,40.55-42.93,73.26C892,410,887.47,456,887.47,504h-766c0-31.65-3.47-62-4.29-91.93,1.78-18.21,4.15-33.34,7.29-41.57,7.61-19.89,18-59.61,59.65-102.37C256.43,170.38,372.55,107,503.47,107m0-15a413.91,413.91,0,0,0-98.54,11.86A411,411,0,0,0,236.38,190.3a415.57,415.57,0,0,0-63.72,68.09c-38.23,39.52-51.41,76.58-59.3,98.77-1.08,3-2,5.67-2.9,8-3.35,8.76-6,23.31-8.11,44.46-2.35,31.4,4.12,62.54,4.12,94.4a15,15,0,0,0,15,15h766a15,15,0,0,0,15-15c0-46.09,6.39-90.06-8.17-131.06,42.61-33.88,40.63-73.35,40-80-1.51-26.34-7.18-45.3-17.84-59.67-9.85-13.27-22.19-20.27-34.11-27-10-5.68-19.45-11-28.18-20.3-22.58-24-44.15-41.75-66-54.38-24.57-14.23-50-21.92-75.44-22.84-4.11-.15-8-.22-11.66-.22-23.5,0-33.24,3.15-41.07,5.69-4.75,1.54-7.61,2.47-13.94,2.55h-1.55A410.78,410.78,0,0,0,503.47,92Z"/></g></mask><mask id="mask-2" x="374.19" y="525.85" width="298.91" height="286.92" maskUnits="userSpaceOnUse"><path class="cls-1" d="M413.68,615.65a84.69,84.69,0,0,1-16.84,6c-11.57,2.81-26.93,8.55-21.54,25.39,8,25,56.2,113.22,68,139,1.4,3.05,5.68,11.92,7,15,3,7,9,14,21,11,11.1-2.77,27-7.34,41.73-10.53a88.33,88.33,0,0,0,49.68-30.32c19-23.21,51.36-59.75,79.6-77.24a84.63,84.63,0,0,0,18.62-15.48c4.28-4.8,8.41-10.53,10.37-16.43,5-15-2-28-2-28s-35-70-40-84-11-22-19-24-25.14,11.26-32,15C549.08,557,445.39,600.37,413.68,615.65Z"/></mask></defs><title>LOGO3</title><path class="cls-1" d="M505,908.5a403.21,403.21,0,1,1,157.45-31.79A402.05,402.05,0,0,1,505,908.5Z"/><path class="cls-1" d="M505,107c219.26,0,397,177.74,397,397S724.26,901,505,901,108,723.26,108,504,285.74,107,505,107m0-15a410.76,410.76,0,1,0,160.37,32.38A409.55,409.55,0,0,0,505,92Z"/><g class="cls-2"><circle class="cls-3" cx="504" cy="505.5" r="397"/><path class="cls-4" d="M360,640.35a15.07,15.07,0,0,1-4.34-.65l-236.6-73.17a14.38,14.38,0,0,1-10.25-13.91c0-5.28-.35-12.65-.81-22-1.82-37.25-4.87-99.59,9.72-160.39,3.53-14.74,11.82-49.25,43.17-87.53,36-44,92.3-80.87,167.26-109.66,3.53-1.54,43.83-18.7,97.48-19.13h.13a14.51,14.51,0,0,1,6.64,27.41c-49.9,25.57-135.74,85.76-149.95,201.57-14,113.91,48.89,194.6,87.6,232.57a14.2,14.2,0,0,1,3.29,15.77A14.43,14.43,0,0,1,360,640.35Z"/><path class="cls-1" d="M425.75,161.43c7.34,0,9.78,9.87,3.22,13.23-46.19,23.67-139,85.72-154,207.34-14.53,118.38,52.18,202,89.79,238.83a7,7,0,0,1-4.8,12,7.32,7.32,0,0,1-2.16-.33L121.26,559.37a7,7,0,0,1-5-6.72C116.39,525.71,107,447,125,372c8.49-35.4,34-126,206-192,0,0,40.62-18.14,94.68-18.57h.07m0-15h-.2c-54.25.44-95.44,17.6-100.25,19.69C249.19,195.37,191.92,233,155.08,278c-32.45,39.61-41,75.29-44.67,90.53C95.57,430.34,98.66,493.35,100.5,531c.44,8.86.81,16.51.8,21.6a21.85,21.85,0,0,0,15.53,21.1h0L353.4,646.85l.07,0a22.36,22.36,0,0,0,6.52,1,22,22,0,0,0,15.3-37.73c-37.73-37-99-115.59-85.4-226.29C303.68,271.45,387.23,212.91,435.81,188a22,22,0,0,0-10.06-41.58Z"/><path class="cls-4" d="M515.74,902.5a7.5,7.5,0,0,1-7.49-7.3c-.49-17.94,2.18-29.36,2.49-30.6a22.44,22.44,0,0,1,21.83-17.13h.06a195.45,195.45,0,0,1,4.18-28.34L495,833.59a7.66,7.66,0,0,1-.82.23,130.86,130.86,0,0,1-24.89,2.85c-7.92,0-13.91-1.17-18.33-3.59-12.28-6.69-19.74-22.16-21.12-25.22l-14-25.12c-13.5,12.29-26.55,18.51-38.87,18.51A36,36,0,0,1,362,798c-.36,6-6.7,14.32-15.36,14.32a14.18,14.18,0,0,1-4.49-.74c-7.21-2.41-8.74-8.23-8.83-13.18a13.42,13.42,0,0,1-6.2,1.48,15.4,15.4,0,0,1-7-1.71c-9.59-4.79-7.95-13.2-7-18.22.32-1.65.65-3.35.87-5.32a31.94,31.94,0,0,0-.69-11.87l-.1-.34c-8.9-32.84,6.42-61.18,21.95-80C332,669.87,323.06,662,314.43,654.39c-5.23-4.61-10.17-9-13.67-14.23-6.56-9.84-8.27-20.44-4.95-30.67,4.57-14.08,18.62-26.68,41.84-37.56a68,68,0,0,0-8.62-5.8,89.41,89.41,0,0,0-44.26-11.75,87.92,87.92,0,0,0-16.36,1.53,109.6,109.6,0,0,0-19.89,5.94c-4.86,1.86-8.7,3.32-12.55,3.32a13.6,13.6,0,0,1-3.29-.39,34.77,34.77,0,0,1-12.38-6.57A38.74,38.74,0,0,0,196.75,550a36,36,0,0,0-11,1.72C171.31,556.4,159,565.93,155.59,575c-5.86,18.2-5.9,54.2-.11,94a7.5,7.5,0,0,1-14.32,4c-19.54-45.53-23.12-65-23.54-67.68l-1.18-5.75c-8.8-42.88-14.6-71.2-7.22-90.29,5.08-13.15,9.87-24,14.09-33.53,10.82-24.47,18-40.63,20.1-71.06,3.67-52.23,30.6-59.25,38.76-60.15a22.19,22.19,0,0,1,2.55-.15,18.25,18.25,0,0,1,14.37,6.51,21.21,21.21,0,0,1,2.09,3l.11-.22c3.55-7.09,10.48-14.67,19.3-14.67,5,0,12.19,2.5,17.95,14.31A27.8,27.8,0,0,1,242,363.92a11.68,11.68,0,0,1,4.5-.87c10.4,0,22.31,12.41,24.94,36.12,3.78,33.94-6.79,71.37-31.39,111.24l-.29.42c-1.27,1.78-2.51,3.78-3.7,5.72-1.06,1.71-2.16,3.49-3.3,5.14a8.47,8.47,0,0,0-1.8,4.67,4.73,4.73,0,0,0,.63,0,10.74,10.74,0,0,0,3.19-.57c1.46-.45,3.07-1,4.8-1.54,10.87-3.54,27.3-8.91,46.81-8.91a101.59,101.59,0,0,1,34.61,6,38.49,38.49,0,0,1,2.72-26.14c9.61-20.2,15-54.68,13.36-65.64-1.74-11.26,1.22-45.85,14.84-61.72,5.14-6,11.55-9.16,18.54-9.16a25.31,25.31,0,0,1,6.15.79l.36.1a19,19,0,0,1,11.65,9.77c3-8.23,9.83-16.32,18.81-16.32,6.71,0,12.61,4.24,17.52,12.6a32.16,32.16,0,0,1,3.3,9.22,12.61,12.61,0,0,1,1.21-1.57,11.81,11.81,0,0,1,8.89-3.89c9.91,0,21.89,11.6,24.58,33.11,2.17,17.37-4.43,33.32-10.81,48.74-6,14.49-11.67,28.18-8.56,40.57a7.75,7.75,0,0,0,7.61,4.61,13.55,13.55,0,0,0,2.42-.23,17.45,17.45,0,0,1,3.49-.36c.44,0,.88,0,1.33.06,6.47.52,22.69,3.7,43.49,21.12,4.9-10,14.22-27.13,29.49-48.45a7.84,7.84,0,0,1,1-1.14c.09-.09,11.17-10.65,10.5-23.68-.42-8.32-5.62-16.34-15.46-23.85-30.61-23.36-38.45-38.65-40.39-45.69a1,1,0,0,0-.24-.4,78.25,78.25,0,0,0-11.13-8c-13.28-8.14-38.61-34.21-39.42-74.65-.79-39.34,36-64.34,42.09-68.19,1.9-1.88,8.63-8.67,12.31-14.79l.29-.47c5.25-8.73,17.54-29.16,50.67-55.59,33-26.28,42.22-29.26,67.5-30.55,2.16-.11,4.18-.17,6-.17,8.51,0,12.37,1.26,15.78,2.37,3,1,5.9,1.92,14.31,1.92h1.47a46.76,46.76,0,0,0,16.17-2.9c7.32-2.38,16.44-5.33,38.76-5.33,3.53,0,7.36.07,11.38.22,46.4,1.68,89.69,25.47,136.23,74.86,9.5,10.09,19.88,16,29.93,21.68,23.17,13.14,45.06,25.56,48.17,80.75.29,2.54,1.36,16-5.65,33.12-6.82,16.61-22.94,40.25-61,58.7-2.24,1.39-26.12,17.49-13.83,62.82,2.21,8.16,5.21,16.92,8.39,26.18C872.25,525.71,895.64,594,850,713.67a8.18,8.18,0,0,1-.62,1.26C846,720.5,842,725.67,836,726.24,751.2,850.84,632,889.4,546.63,899.78c-9.06,1.1-18.29,2-27.42,2.52l-3,.19ZM402.5,556a119.78,119.78,0,0,1,48.81,10.15c8.23-6.37,15.78-12.94,21.12-17.75a90.74,90.74,0,0,0-36.31-7.83c-21.62,0-40.2,8.09-54.17,17.08A130.07,130.07,0,0,1,402.5,556ZM387.67,417.69l.05-.15h0A1.3,1.3,0,0,0,387.67,417.69Z"/><path class="cls-1" d="M701.6,125c3.36,0,7,.07,11.11.21,48.29,1.75,90.63,29.62,131,72.52C876,232,915.67,220.41,919.84,295.71c0,0,7.27,50.8-62.79,84.54,0,0-32,18.05-17.51,71.4C853.67,503.78,896.25,571.3,843,711c-4.19,6.8-6.44,7.79-8,7.79-.66,0-1.21-.16-1.74-.16s-1.25.24-2,1.35c-82.63,122.84-199,161.83-285.49,172.35-9.38,1.14-18.4,1.95-27,2.49l-3,.18c-.46-17,2.07-27.73,2.28-28.61a15,15,0,0,1,18.15-11,14.65,14.65,0,0,1,3.68,1.46c-.21-23.67,7.65-49.37,7.65-49.37l-55,19a124.33,124.33,0,0,1-23.26,2.67c-5.63,0-11.07-.67-14.74-2.67-11-6-18-22-18-22l-19-34c-17.5,18.5-31,23.25-40.62,23.25S361.5,789,359.5,788.5a2.69,2.69,0,0,0-.67-.09c-3.44,0-4.33,7.21-4.33,9.09s-3.08,7.36-7.88,7.36a6.56,6.56,0,0,1-2.12-.36c-6-2-3-9-3-16s1-10-3-11a2.87,2.87,0,0,0-.75-.1c-3.38,0-4.25,6.3-4.25,9.1a6.53,6.53,0,0,1-6.4,5.93,8.06,8.06,0,0,1-3.6-.93c-6-3-3-7-2-16a38.3,38.3,0,0,0-1-15c-8.53-31.48,7.86-58.8,22.81-76C339,658.73,315.89,649.33,307,636c-10-15-12-41,50-64a130.29,130.29,0,0,1,45.5-8.49,111.79,111.79,0,0,1,49.72,11.37A384.53,384.53,0,0,0,485.5,546.5c-17.54-9.69-34.17-13.42-49.38-13.42-37.38,0-66.18,22.51-78.73,34.34a9.79,9.79,0,0,1-13.13.26,71,71,0,0,0-11.52-8.06,96.79,96.79,0,0,0-48-12.74A95.74,95.74,0,0,0,267,548.54c-16.51,3.11-25.55,9.13-31,9.13a5.81,5.81,0,0,1-1.47-.17c-3.26-.82-6.69-3-9.61-5.22a46.11,46.11,0,0,0-28.14-9.75,43.62,43.62,0,0,0-13.32,2.08c-15.62,5-30.5,15.7-34.93,27.89-6.73,20.72-5.95,59.67-.44,97.55C127.55,622.28,125,604,125,604h0l2.51-3.41L125,604h0c-9-44-15.69-74.16-8.79-92,17.79-46,31.57-62.55,34.68-106.77S174,353,183,352a16.53,16.53,0,0,1,1.72-.1c8.45,0,16.66,7.43,11.64,37.74C195,402,201,403,201,403s6,0,8-9-5-29-1-37c2.37-4.73,7.18-10.52,12.59-10.52,3.73,0,7.73,2.76,11.41,10.52,7,10,0,44,0,44s0,6.75,2.95,6.75c1,0,2.3-.75,4.05-2.75,7-8,1.62-27.37,4.31-32.69a3.38,3.38,0,0,1,3.2-1.76c5.39,0,15.14,8.26,17.49,29.45,3,27-3.15,62.44-30.33,106.47-2.58,3.62-4.78,7.64-7.07,11-5.58,8.07-3.59,16.46,5,16.46a18.53,18.53,0,0,0,5.4-.9c10.45-3.21,28-10.12,49.4-10.12,15.6,0,33.23,3.67,51.6,15.12,0,0-17.5-18.5-7.5-39.5s16-57,14-70c-1.89-12.27,3-62.24,26-62.24a18.19,18.19,0,0,1,4.33.56c18.7,5.68,5.7,48.68,5.7,48.68s-2,7,5,7c2.25,0,4.4-1.45,6.27-3.41A20.8,20.8,0,0,0,397,401c-1.55-8.68-3.52-22.56-1.53-28.53,1.86-5.57,6.39-11.9,11.94-11.9,3.43,0,7.24,2.41,11.06,8.9,2.71,4.61,5.88,18.28,1.05,37.12A28.45,28.45,0,0,0,419,418.2c.69,4.25,1.81,5.69,3,5.69,2.55,0,5.48-6.39,5.48-6.39s8-12,6-32c-.57-5.74,1.63-8.54,4.86-8.54,5.82,0,15,9.11,17.14,26.54,4,32-27,62-19,91,3.67,7.95,10.17,9.49,14.68,9.49a19.65,19.65,0,0,0,3.88-.38,10.68,10.68,0,0,1,2-.21c.24,0,.47,0,.71,0,5.45.44,23.46,3.66,46.7,26.07,0,0,9-23,33-56.5,0,0,32.5-30-5.5-59-30-22.91-36.37-36.87-37.71-41.73a8.37,8.37,0,0,0-2.49-4,85.66,85.66,0,0,0-12.19-8.77c-10.61-6.5-35.08-30.3-35.85-68.4S483,229,483,229s9.19-8.72,14.1-16.86,16.51-28,49.21-54.06,40.71-27.78,63.2-28.93c2.12-.11,4-.16,5.6-.16,15.33,0,11.72,4.29,30.09,4.29h1.57C667.13,133,665,125,701.6,125m0-15c-23.51,0-33.25,3.15-41.07,5.69-4.75,1.54-7.62,2.47-13.95,2.55H645.2c-7.22,0-9.32-.68-12-1.55-4.6-1.5-9.13-2.74-18.1-2.74-2,0-4,.06-6.37.18-11.73.6-21.61,1.45-32.93,6.32-10,4.31-20.93,11.56-38.86,25.86-34.18,27.27-47,48.51-52.42,57.58l-.28.47c-2.74,4.55-7.92,10.09-10.61,12.78-8.49,5.56-45.71,32.34-44.87,74.22.87,43.68,28.51,72,43,80.89a81.51,81.51,0,0,1,8.7,6c3.44,9.91,13.76,25.73,42.43,47.6,8,6.13,12.24,12.3,12.53,18.33.43,9.25-8,17.65-8.11,17.73a15.12,15.12,0,0,0-2,2.28,374.9,374.9,0,0,0-25.92,41.34c-19-13.8-33.95-16.6-40.36-17.12-.64-.05-1.29-.08-1.93-.08a25.52,25.52,0,0,0-5,.5,5.2,5.2,0,0,1-.95.09,4,4,0,0,1-.59,0c-1.89-9.76,2.93-21.4,8.47-34.77,6.44-15.56,13.74-33.2,11.32-52.54-1.3-10.45-4.77-19.73-10-26.85-6-8.15-14-12.83-22-12.83a19.89,19.89,0,0,0-6.33,1c-.2-.38-.4-.74-.6-1.09-7.92-13.46-17.42-16.29-24-16.29-8.77,0-15.55,4.78-20.22,10.87a26.78,26.78,0,0,0-8.06-4l-.72-.2a33.15,33.15,0,0,0-8-1c-6.46,0-15.9,2.05-24.25,11.78-16.07,18.73-18.35,56-16.56,67.74,1.36,8.83-3.55,42-12.71,61.27A45.9,45.9,0,0,0,312.41,511a109.74,109.74,0,0,0-26-3.11c-15.68,0-29.3,3.21-39.9,6.36C272,473,282.87,434,278.91,398.34c-3.16-28.45-18.08-41.91-31.1-42.75a28.52,28.52,0,0,0-2.71-5.95c-7.43-15-17.4-18.15-24.51-18.16-8.38,0-15.34,4.55-20.35,10.34a26.17,26.17,0,0,0-15.52-4.92,32.21,32.21,0,0,0-3.38.19c-6.09.68-17.82,3.6-28,15.59-9.95,11.7-15.8,29-17.38,51.49-2.05,29.13-9,44.81-19.48,68.56-4.25,9.63-9.08,20.54-14.23,33.86-8.17,21.14-2.19,50.32,6.87,94.49l1.14,5.58c.66,4,4.62,24.08,24,69.31a15,15,0,0,0,28.63-8.08c-5.53-38-5.62-73.48-.23-90.47,2.26-5.78,11.82-14.16,25.36-18.53a28.53,28.53,0,0,1,8.72-1.36,31.27,31.27,0,0,1,19,6.61c5.3,4.1,10.25,6.69,15.15,7.91a21.09,21.09,0,0,0,5.11.62c5.23,0,9.86-1.76,15.22-3.81a103.84,103.84,0,0,1,18.61-5.58,80.66,80.66,0,0,1,15-1.4,81.78,81.78,0,0,1,37.88,9.32c-18.36,10.45-29.55,22.35-34,36-4,12.31-1.91,25.5,5.85,37.14,4.05,6.07,9.59,11,15,15.7,7.17,6.33,14,12.37,17.37,20.92a119.08,119.08,0,0,0-17.76,30.89c-6.7,17.65-7.73,35.35-3.06,52.59a6.8,6.8,0,0,0,.2.68,26.51,26.51,0,0,1,.37,8.74c-.18,1.67-.48,3.22-.78,4.72-.66,3.42-1.41,7.29-.58,11.71s3.52,10.63,11.56,14.65a23,23,0,0,0,10.31,2.51h.33a19.81,19.81,0,0,0,12.33,11.31,21.58,21.58,0,0,0,6.86,1.13c9.23,0,16.25-5.79,20-12.34a43.4,43.4,0,0,0,10.3,1.23c11.95,0,24.26-4.85,36.74-14.44l9.46,16.93c2.16,4.72,10.33,20.84,24.24,28.43,5.55,3,12.72,4.5,21.92,4.5a138.77,138.77,0,0,0,26.51-3,15.5,15.5,0,0,0,1.65-.46l29.65-10.24c-.53,3.3-1,6.77-1.37,10.32a30,30,0,0,0-22.23,22c-.54,2.2-3.2,14.09-2.7,32.6a15,15,0,0,0,15,14.59c.29,0,.57,0,.85,0l3.09-.18c9.29-.59,18.67-1.45,27.86-2.57,86.3-10.49,206.7-49.32,293-174.29,8.16-2.59,13-10.38,15.22-14.07a14.78,14.78,0,0,0,1.25-2.52c20.57-54,29.26-102.4,26.55-148.09-2.33-39.43-12.85-70.13-21.31-94.81-3.13-9.14-6.09-17.78-8.24-25.72-10.37-38.25,7.56-52.41,10.34-54.34,17.24-8.4,31.65-18.54,42.86-30.16A102.58,102.58,0,0,0,928.59,331c7.49-18.24,6.61-32.78,6.2-36.61-1.51-26.3-7.18-45.25-17.83-59.6-9.86-13.27-22.19-20.27-34.12-27-10-5.68-19.45-11-28.17-20.3-22.58-24-44.16-41.75-66-54.38-24.58-14.23-50-21.91-75.45-22.84-4.11-.15-8-.22-11.65-.22ZM420.16,549.68a81.1,81.1,0,0,1,16-1.6,79.71,79.71,0,0,1,21.77,3.08c-2.43,2.06-5,4.21-7.74,6.37a125.82,125.82,0,0,0-30-7.85Z"/><path class="cls-5" d="M374.35,684.38a4.59,4.59,0,0,0-7.1-1.21c-8.17,7.32-33.51,29.5-35.25,53.83-2,28,11-4,11-4s5-10,10-4c3,3-2,11-2,11s-14,16-7,22c4.86,4.17,5-1,7-6,2.1-5.25,8-16,14-12,7.85,5.23,0,10-2,17s-3,12,1,14,17,8,28-10c6.6-10.8,9.24-14.4,11.16-15.55a3.66,3.66,0,0,0,1.22-5C400.08,737,391.65,722.29,388,715,384.16,707.33,378.56,692,374.35,684.38Z"/><path class="cls-6" d="M412.38,616.6a85.29,85.29,0,0,1-16.84,6C384,625.41,368.61,631.15,374,648c8,25,56.2,113.22,68,139,1.4,3,5.68,11.92,7,15,3,7,9,14,21,11,11.1-2.77,27-7.34,41.73-10.53a88.38,88.38,0,0,0,49.68-30.32c19-23.21,51.36-59.76,79.6-77.24a84.63,84.63,0,0,0,18.62-15.48c4.28-4.8,8.41-10.54,10.37-16.43,5-15-2-28-2-28s-35-70-40-84-11-22-19-24-25.14,11.26-32,15C547.78,557.94,444.09,601.31,412.38,616.6Z"/><g class="cls-7"><path class="cls-8" d="M623.16,620.66c-39.07-68-85.69-54.16-97-48.59s-10.57,5.19-15.73,15.66a28.64,28.64,0,0,1-10.06,11.64,28.67,28.67,0,0,1-15.36.86c-11.45-2.3-10.69-2.67-22,2.9s-50.77,34-20.77,106.5,59.2,84.17,81.4,72.12,27.54-31.58,45.86-41.79c19.28-8.28,38.06-.59,61.11-10.79S662.23,688.68,623.16,620.66Zm6.05,86.27c-1.59,3.37-5.74,3.85-8.67,1l-11-10.8a7.61,7.61,0,0,0-3.15-1.9l-15.67-4.63a8.76,8.76,0,0,0-.92-4.24l-4.87-9.9a9.21,9.21,0,0,0-1.85-2.62c-2.47-2.36-5.61-2.72-7.85-1.23L562.69,681a6.23,6.23,0,0,0-2.69,4.46,8.87,8.87,0,0,0,4.67,8.82L576,697c7,3,8.63,3.89,9,4l18.16,8,5.18,5.09c2.93,2.89,2.3,7.88-1.13,8.67-12.21,2.83-23.5.37-34.21,1.74a6.71,6.71,0,0,1-6.6-4.11l-1.78-3.73,8.19,2.64a5.67,5.67,0,0,0,7.52-4,8.73,8.73,0,0,0-5.45-10.06L552.76,698h-.67a6.46,6.46,0,0,0-5.21,2.57l-.41.53h0L538.61,723a8.7,8.7,0,0,0,4.63,10.45A5.66,5.66,0,0,0,551,730l2.92-8.1,1.86,3.69c1.39,2.75,1.05,5.91-.78,7.74-7.62,7.64-12.57,18.09-22.26,26-2.73,2.23-7.07-.32-7.56-4.41l-.87-7.21L527,728a58.87,58.87,0,0,1,3-7l5-9c2-7,.26-10.94-2.92-12.82a6.21,6.21,0,0,0-5.16-.59l-14.34,4.81c-2.55.86-4.19,3.56-3.83,7a9.2,9.2,0,0,0,.95,3.07l4.87,9.9a8.7,8.7,0,0,0,2.8,3.31l-5.91,15.24a7.69,7.69,0,0,0-.42,3.66l1.85,15.28a5.61,5.61,0,0,1-2.77,5.92,5,5,0,0,1-3.3.36c-12.78-2.78-27-15.54-41.73-44.36-1.46-2.85,0-6,2.69-6.08l8.16-.11,11.7,20.62c2,3.5,5.82,5,8.77,3.58l.4-.22c3-1.8,3.72-6.23,1.65-9.89l-14.07-24.8a7.64,7.64,0,0,0-6.47-4.12l-18.8.26a5.67,5.67,0,0,1-5-3.82c-5.56-14.4-8.13-26.43-8.7-36.46-.21-3.7,3-5.9,6.14-4.25l11.76,6.15L460.16,672a8.71,8.71,0,0,0,2.5,9.16,7.57,7.57,0,0,0,2.9,1.63L481,687.63a5.65,5.65,0,0,0,4.21-.26,6.22,6.22,0,0,0,3.23-6,9.3,9.3,0,0,0-5.94-8l-7-2.18,2.61-7.06a8.7,8.7,0,0,0-2.25-8.92,7.9,7.9,0,0,0-1.94-1.4l-20-10.46c-3.52-1.84-5.19-6.57-3.52-10a40.33,40.33,0,0,1,11.4-14.07c1.83-1.43,4.67-.1,5.43,2.56l3.21,11.21c1,3.45,3.87,6.2,7,6.34a5.43,5.43,0,0,0,2.7-.54c2.61-1.28,3.88-4.62,2.88-8.11l-3.32-11.6c-1.25-4.34,1.16-8.34,5-8.32a45.61,45.61,0,0,1,8.84,1h0a7.61,7.61,0,0,1,5.47,4l3.77,7.65-9.73,13c-2.15,2.89-1.53,7.56,1.4,10.45,2.19,2.16,5.06,2.7,7.27,1.61a5.34,5.34,0,0,0,1.94-1.62l3.07-4.11c1.5-2,4.61-1.92,5.63.15h0a8.23,8.23,0,0,0,10.86,3.5c4.36-2,6.36-6.84,4.47-10.69l-.14-.28c-1-2.07.82-4.59,3.32-4.55l5.13.08a5.46,5.46,0,0,0,2.47-.54c2.2-1.09,3.53-3.69,3.16-6.75-.5-4.08-3.82-7.43-7.42-7.48L518,616.09l-3.76-7.65a7.64,7.64,0,0,1,.16-6.78l0,0A46.45,46.45,0,0,1,519,594c2.36-3.08,7-2.53,9.67,1.09l7.16,9.72c2.15,2.92,5.57,4,8.18,2.68a5.51,5.51,0,0,0,2.08-1.82c1.79-2.54,1.37-6.5-.76-9.39l-6.91-9.39c-1.65-2.23-1-5.29,1.28-5.87a40.35,40.35,0,0,1,18.11-.43c3.69.74,6.42,4.95,5.73,8.86l-3.93,22.23a7.63,7.63,0,0,0-.09,2.39,8.73,8.73,0,0,0,5.69,7.23l7.2,2.24-2.55,6.87a9.3,9.3,0,0,0,2.72,9.59,6.24,6.24,0,0,0,6.72,1.11,5.65,5.65,0,0,0,2.78-3.18l5.59-15.13a7.49,7.49,0,0,0,.48-3.29,8.74,8.74,0,0,0-5.73-7.57l-8.58-2.68,2.31-13.07c.62-3.5,4.32-4.69,7.12-2.26,7.59,6.57,15.55,16,23.56,29.15a5.66,5.66,0,0,1-.06,6.32l-11.68,14.73a7.62,7.62,0,0,0-.69,7.64L605.45,678c1.63,3.88,5.59,6,8.84,4.73l.42-.18c2.94-1.45,4.07-5.42,2.52-9.13L608,651.6l5.07-6.39c1.7-2.15,5.09-1.31,6.46,1.59C633.42,676,634.81,695.1,629.21,706.93Z"/></g><path class="cls-5" d="M563,206c43,2,34,28,57,28s28-31,100-28c50.27,2.09,89.82,34.42,112.51,61.9C832.69,241.69,835,222,835,222c-28-47-75-79-118-81s-50,7-74,7c-11.33,0-17.32-.67-21.84-1.38a72.65,72.65,0,0,0-38.84,4.31c-26,10.73-50.05,34.32-69.32,62.07-2.46,3.54-4.73,6.89-6.82,10.08C515.06,215.82,533.68,204.64,563,206Z"/><path class="cls-5" d="M559.28,483.82l-.86.05a10.21,10.21,0,0,0-9.16,7.05C538.79,523.43,497,560,497,560a503,503,0,0,0,59.54-24.71A76.55,76.55,0,0,1,559.28,483.82Z"/><path class="cls-5" d="M512.69,380.4c-7.32-15.12-14.51-30-20.81-43.14C495,352.92,502.63,367.37,512.69,380.4Z"/><path class="cls-5" d="M774,409c-16.59,1.95-105.56,44.89-74.49,177.12,10.94-25.06,28.19-27.32,18-8.62-12,22-14,57-14,57s-1.5,41.5-34,66C585,758,572.5,789.5,561,820c-11.38,30.18-2.5,46.5-2.5,46.5-1-9,6-17,6-17,10-8,17,0,13,5s-11,18-7,27,7,16,9,1,4-27,13-27,.5,18.5.5,29.5c-1,11,6,5,13,0s14-10,15-28c13-40,78-37,147-94,122-103,72-264,47-298-12.75-20-15.17-34.16-10.65-47.77C799.13,414,786.85,407.49,774,409Z"/><path class="cls-9" d="M774,409c12.85-1.51,25.13,5,30.35,8.23a58.3,58.3,0,0,1,5.3-11.3,91.81,91.81,0,0,1,17.26-20.7A75.11,75.11,0,0,0,845,359c-10.38-27-12.68-62.83-12.49-91.1C809.82,240.42,770.27,208.09,720,206c-72-3-77,28-100,28s-14-26-57-28c-29.32-1.36-47.94,9.82-56.82,17.08C483,258.5,481.83,275.13,491,332c.23,1.77.53,3.52.88,5.26C495,357,500,364,512.69,380.4c26.56,34.43,70.07,59,92.29,70.07a11,11,0,0,1,1.41,18.8c-15.79,11.05-36,13.87-47.11,14.55a76.55,76.55,0,0,0-2.74,51.47c7.85-3.87,16-8.14,24-12.79,39.45-31.05,54.94-2.94,58.91,6.9,1.15,2.86,2.38,5.68,3.77,8.44,10,19.84,44.47,87.94,45.32,83.66.64-3.21,2.94-10.56,4.5-15.4.9-2.81,1.7-5.66,2.49-8.51a84.4,84.4,0,0,1,4-11.47C668.44,453.89,757.41,411,774,409Z"/><path class="cls-4" d="M655.52,325.58a6.39,6.39,0,0,1-4-5.22A7.19,7.19,0,0,1,652,317c1.8-4.5,6.85-7.39,9.29-22.53A64.17,64.17,0,0,1,668.07,274c8.73-16,26.4-33.17,61.93-36,51-4,69.53,46.94,70,54,1,15-2,56-48,67-37,7-46,5-61-8s-21-16-26-20A39.57,39.57,0,0,0,655.52,325.58Z"/><path class="cls-10" d="M577.78,373.07c.63.56,1.22,1.05,1.72,1.43,0,0,0,10,3,18,0,0-12,7-19-9a28.12,28.12,0,0,1-2.4-8.79l-.09.1s-1.33,18.74,8.49,29.38c-1.12-4,24-.69,24-.69s23,6,50-4c0,0,5,1,12-2s10-19-10-17c-5.45,1.36-8.58,5.51-10,8a10.83,10.83,0,0,1-4.44,4.28c-5,2.53-15.66,5.75-34.54,1.71-8-2-5-17-5-17A19.88,19.88,0,0,1,577.78,373.07Z"/><path class="cls-4" d="M645,412s-40.17,6.15-63.86-1.25h0a21.92,21.92,0,0,1-8.57-3.8,24.53,24.53,0,0,1-2.07-1.45,2.93,2.93,0,0,1-1-1.31c-9.82-10.64-8.49-29.38-8.49-29.38l.09-.1c-.83-9.46,5.4-13.21,5.4-13.21s4.8,5.33,8.94,9.37a7.66,7.66,0,0,1,.65.63c.59.56,1.16,1.09,1.69,1.57A28.57,28.57,0,0,0,592,379s16,2,24.5-6.5c10.51-10.51,17-30-8-35-14-2-23-3-23-3,13-12,36-34,18-69s-57-31-81-16-26,54-18,73S539,357,539,357c8,16,6,18,9,29s6,44,82,38c23-4,32-2,32-8S645,412,645,412Z"/><circle class="cls-11" cx="567" cy="300" r="19"/><circle class="cls-11" cx="734" cy="300" r="19"/><path class="cls-12" d="M575.44,370.87c-4.14-4-8.94-9.37-8.94-9.37s-6.23,3.75-5.4,13.21C561.94,373.73,569.33,365.49,575.44,370.87Z"/><path class="cls-12" d="M569.5,404.19a2.93,2.93,0,0,0,1,1.31,24.53,24.53,0,0,0,2.07,1.45A21.34,21.34,0,0,1,569.5,404.19Z"/><path class="cls-12" d="M577.78,373.07c-.53-.48-1.1-1-1.69-1.57h0A20.43,20.43,0,0,0,577.78,373.07Z"/><path class="cls-4" d="M581.14,410.75h0a36.6,36.6,0,0,1-8.57-3.8A21.92,21.92,0,0,0,581.14,410.75Z"/><path class="cls-4" d="M575.44,370.87l.65.63A7.66,7.66,0,0,0,575.44,370.87Z"/><path class="cls-9" d="M357,572c-62,23-60,49-50,64,8.89,13.33,32,22.73,36.31,48.54a134.14,134.14,0,0,1,20.19-19s-14-26-7-39c5-9.34,16.26-13.52,22.18-15.13a66.94,66.94,0,0,0,9.79-3.55l34-15.32c9-3.25,19.72-10.14,29.72-17.62C436.83,567.19,402.24,555.22,357,572Z"/><path class="cls-4" d="M355.12,875.24a7.41,7.41,0,0,1-2.84-.56l-2.1-.87-.88-.37a7.5,7.5,0,0,1-4.57-7.72c.33-3,.74-6,1.24-8.92a7.5,7.5,0,0,1,7.39-6.23h.19a7.5,7.5,0,0,1,7.26,6.59c.07.59.11,1.07.14,1.4.46,2.55,1,5.1,1.5,7.6a7.49,7.49,0,0,1-7.33,9.08Z"/><path class="cls-1" d="M353.36,858.07c.11.89.14,1.43.14,1.43.52,2.92,1.07,5.66,1.62,8.24l-2.93-1.22c.32-3,.72-5.82,1.17-8.45m0-15a15,15,0,0,0-14.78,12.46c-.52,3-1,6.2-1.31,9.39a15,15,0,0,0,9.13,15.44l.86.36,2.17.9a15,15,0,0,0,20.36-17c-.5-2.3-1-4.66-1.4-7,0-.37-.08-.82-.14-1.32a15,15,0,0,0-14.52-13.18Z"/><path class="cls-5" d="M320.83,852c.57-4.26.74-2.42,4.17-5a250.25,250.25,0,0,1,8.66-26.86,15,15,0,0,1,26.72,13.65c-.17.34-4.42,9.19-7,24.28.11.89.14,1.43.14,1.43.52,2.92,1.07,5.66,1.62,8.24a501.81,501.81,0,0,0,58.2,19.69c1.88-21.48,7.38-34.65,7.79-35.6a15,15,0,0,1,27.6,11.74c-.12.3-5,12.9-6.71,23.43,2.74,3,7.49.92,9.5,7.16a453.76,453.76,0,0,0,64.24.84c-.46-17,2.07-27.73,2.28-28.61a15,15,0,0,1,18.15-11,14.65,14.65,0,0,1,3.68,1.46c-.21-23.67,7.65-49.37,7.65-49.37l-55,19s-27,6-38,0-18-22-18-22l-19-34c-35,37-54,19-58,18s-5,7-5,9-4,9-10,7-3-9-3-16,1-10-3-11-5,6-5,9-4,8-10,5-3-7-2-16a38.3,38.3,0,0,0-1-15c-8.53-31.48,7.86-58.8,22.81-76C339,658.73,315.89,649.33,307,636c-10-15-12-41,50-64,45.24-16.78,79.83-4.81,95.22,2.88A384.53,384.53,0,0,0,485.5,546.5c-60.62-33.5-110.43,4.26-128.1,20.91a9.8,9.8,0,0,1-13.15.26,70.89,70.89,0,0,0-11.48-8A96.61,96.61,0,0,0,267,548.54c-18.08,3.4-27.19,10.29-32.52,9-3.26-.82-6.69-3-9.61-5.22a45.25,45.25,0,0,0-41.46-7.67c-15.62,5-30.5,15.7-34.93,27.89-6.73,20.72-5.95,59.67-.45,97.55C172.55,727.1,222,801.25,320.83,852Z"/><path class="cls-4" d="M353.86,813.66a15,15,0,0,0-20.2,6.48c-.36.7-4.1,8.16-7.36,20.94-.94,3.68-1.84,7.81-2.61,12.35q13.62,6.86,28.5,13.09c.32-3,.72-5.82,1.17-8.45,2.6-15.09,6.85-23.94,7-24.28A15,15,0,0,0,353.86,813.66Z"/><path class="cls-4" d="M440.8,844a15,15,0,0,0-19.69,7.88c-.41.95-5.91,14.12-7.79,35.6l1.73.47q6.39,1.73,13,3.34s5.37,1,15,2.08c.3-4.77.82-9,1.43-12.77a87,87,0,0,1,4.28-17A15,15,0,0,0,440.8,844Z"/><path class="cls-4" d="M840,715c3-4,3.64-7.77,1.85-8.79l-18.58-10.55c-66,96.5-154.15,143.92-216.47,166.7-64.08,23.43-114.87,26.42-120.92,26.7-121.54-9.34-218.25-61.69-287.46-155.62C146.31,662.7,130.14,593.56,130,592.87l-12.68,2.87C158.16,771.52,315.78,902.5,504,902.5a397,397,0,0,0,114.59-16.79,486.79,486.79,0,0,0,112.84-59.6C773.29,796.25,824.57,735.58,840,715Z"/><path class="cls-4" d="M116,514s-15,27,3,89l4-4,7-6Z"/><path class="cls-1" d="M851.44,687s-6.9,22.82-21.42,40.64L845.5,712.5Z"/></g></svg>