<svg width="153" height="153" xmlns="http://www.w3.org/2000/svg" xmlns:xlink="http://www.w3.org/1999/xlink" overflow="hidden"><defs><filter id="fx0" x="-10%" y="-10%" width="120%" height="120%" filterUnits="userSpaceOnUse" primitiveUnits="userSpaceOnUse"><feComponentTransfer color-interpolation-filters="sRGB"><feFuncR type="discrete" tableValues="0 0"/><feFuncG type="discrete" tableValues="0 0"/><feFuncB type="discrete" tableValues="0 0"/><feFuncA type="linear" slope="0.4" intercept="0"/></feComponentTransfer><feGaussianBlur stdDeviation="1.77778 1.77778"/></filter><linearGradient x1="766.5" y1="212" x2="766.5" y2="363" gradientUnits="userSpaceOnUse" spreadMethod="reflect" id="fill1"><stop offset="0" stop-color="#DAE3F3"/><stop offset="0.74" stop-color="#ABC0E4"/><stop offset="0.83" stop-color="#ABC0E4"/><stop offset="1" stop-color="#C7D5ED"/></linearGradient><clipPath id="clip2"><rect x="15" y="9" width="80" height="89"/></clipPath></defs><g transform="translate(-690 -211)"><path d="M691 287.5C691 245.802 724.802 212 766.5 212 808.198 212 842 245.802 842 287.5 842 329.197 808.198 363 766.5 363 724.802 363 691 329.197 691 287.5Z" fill="url(#fill1)" fill-rule="evenodd"/><g clip-path="url(#clip2)" filter="url(#fx0)" transform="translate(714 235)"><g><g><g><g><path d="M86.8284 72.8284C86.7762 70.323 85.6014 67.9735 83.6284 66.4284 79.2284 62.8284 73.6284 60.4284 68.0284 58.8284 63.7501 57.5187 59.3026 56.8449 54.8284 56.8284 50.3591 56.9055 45.92 57.5781 41.6284 58.8284 36.0357 60.4604 30.7607 63.0303 26.0284 66.4284 24.0554 67.9735 22.8806 70.323 22.8284 72.8284L22.8284 88.8284 86.8284 88.8284Z" fill="#FFFFFF"/><path d="M51.8284 32.5784C54.4284 31.0484 60.8284 26.1084 60.8284 26.1084L60.8284 26.1084C61.8383 26.1959 62.7992 26.5823 63.5884 27.2184 65.5089 28.5669 67.1352 30.2919 68.3684 32.2884 69.4784 33.9484 70.4284 35.2884 70.7184 35.6884L70.7184 35.6884 70.8284 35.8284 70.8284 35.8284C71.3284 34.8284 71.3084 32.0384 70.9584 29.4984 70.4684 25.9984 70.0684 24.9584 67.8284 23.0784 66.4011 21.7849 64.4963 21.1499 62.5784 21.3284 59.9762 19.3091 56.8415 18.0928 53.5584 17.8284 48.5584 17.6484 43.0984 20.2584 40.7784 23.3184 37.2684 27.9184 37.6584 30.9184 37.6584 31.9884 37.6584 33.0584 36.4284 34.9184 37.2884 34.9184 37.8484 34.9184 38.3984 34.9184 38.9584 34.9184L38.9584 34.9184C42.1284 34.8284 48.5984 34.4784 51.8284 32.5784Z" fill="#FFFFFF"/><path d="M69.2484 36.9984C69.1984 36.9284 68.0984 35.3984 66.7584 33.4084 65.6579 31.6035 64.1976 30.0444 62.4684 28.8284 62.1318 28.5833 61.7656 28.3817 61.3784 28.2284 59.5984 29.5784 55.0184 33.0184 52.8384 34.2884 49.3784 36.2884 43.0684 36.8184 38.8384 36.9084 38.948 45.7443 46.1997 52.8183 55.0356 52.7087 62.9276 52.6109 69.5693 46.7727 70.6784 38.9584Z" fill="#FFFFFF"/></g></g></g></g></g><g><g><g><path d="M798 305C797.948 302.495 796.773 300.145 794.8 298.6 790.4 295 784.8 292.6 779.2 291 774.922 289.69 770.474 289.017 766 289 761.531 289.077 757.092 289.75 752.8 291 747.207 292.632 741.932 295.202 737.2 298.6 735.227 300.145 734.052 302.495 734 305L734 321 798 321Z" fill="#FFFFFF"/><path d="M763 264.75C765.6 263.22 772 258.28 772 258.28L772 258.28C773.01 258.367 773.971 258.754 774.76 259.39 776.68 260.738 778.307 262.464 779.54 264.46 780.65 266.12 781.6 267.46 781.89 267.86L781.89 267.86 782 268 782 268C782.5 267 782.48 264.21 782.13 261.67 781.64 258.17 781.24 257.13 779 255.25 777.573 253.956 775.668 253.322 773.75 253.5 771.148 251.481 768.013 250.264 764.73 250 759.73 249.82 754.27 252.43 751.95 255.49 748.44 260.09 748.83 263.09 748.83 264.16 748.83 265.23 747.6 267.09 748.46 267.09 749.02 267.09 749.57 267.09 750.13 267.09L750.13 267.09C753.3 267 759.77 266.65 763 264.75Z" fill="#FFFFFF"/><path d="M780.42 269.17C780.37 269.1 779.27 267.57 777.93 265.58 776.829 263.775 775.369 262.216 773.64 261 773.303 260.755 772.937 260.553 772.55 260.4 770.77 261.75 766.19 265.19 764.01 266.46 760.55 268.46 754.24 268.99 750.01 269.08 750.12 277.916 757.371 284.99 766.207 284.88 774.099 284.783 780.741 278.944 781.85 271.13Z" fill="#FFFFFF"/></g></g></g></g></svg>