<svg width="153" height="153" xmlns="http://www.w3.org/2000/svg" xmlns:xlink="http://www.w3.org/1999/xlink" overflow="hidden"><defs><filter id="fx0" x="-10%" y="-10%" width="120%" height="120%" filterUnits="userSpaceOnUse" primitiveUnits="userSpaceOnUse"><feComponentTransfer color-interpolation-filters="sRGB"><feFuncR type="discrete" tableValues="0 0"/><feFuncG type="discrete" tableValues="0 0"/><feFuncB type="discrete" tableValues="0 0"/><feFuncA type="linear" slope="0.4" intercept="0"/></feComponentTransfer><feGaussianBlur stdDeviation="1.77778 1.77778"/></filter><linearGradient x1="564.5" y1="209" x2="564.5" y2="360" gradientUnits="userSpaceOnUse" spreadMethod="reflect" id="fill1"><stop offset="0" stop-color="#D0EAF0"/><stop offset="0.74" stop-color="#ABDAE5"/><stop offset="0.83" stop-color="#A2D6E2"/><stop offset="1" stop-color="#ABDAE5"/></linearGradient><clipPath id="clip2"><rect x="15" y="9" width="80" height="89"/></clipPath></defs><g transform="translate(-488 -208)"><path d="M489 284.5C489 242.802 522.802 209 564.5 209 606.198 209 640 242.802 640 284.5 640 326.197 606.198 360 564.5 360 522.802 360 489 326.197 489 284.5Z" fill="url(#fill1)" fill-rule="evenodd"/><g clip-path="url(#clip2)" filter="url(#fx0)" transform="translate(512 232)"><g><g><g><g><path d="M86.8284 72.8284C86.7762 70.323 85.6014 67.9735 83.6284 66.4284 79.2284 62.8284 73.6284 60.4284 68.0284 58.8284 63.7501 57.5187 59.3026 56.8449 54.8284 56.8284 50.3591 56.9055 45.92 57.5781 41.6284 58.8284 36.0357 60.4604 30.7607 63.0303 26.0284 66.4284 24.0554 67.9735 22.8806 70.323 22.8284 72.8284L22.8284 88.8284 86.8284 88.8284Z" fill="#FFFFFF"/><path d="M51.8284 32.5784C54.4284 31.0484 60.8284 26.1084 60.8284 26.1084L60.8284 26.1084C61.8383 26.1959 62.7992 26.5823 63.5884 27.2184 65.5089 28.5669 67.1352 30.2919 68.3684 32.2884 69.4784 33.9484 70.4284 35.2884 70.7184 35.6884L70.7184 35.6884 70.8284 35.8284 70.8284 35.8284C71.3284 34.8284 71.3084 32.0384 70.9584 29.4984 70.4684 25.9984 70.0684 24.9584 67.8284 23.0784 66.4011 21.7849 64.4963 21.1499 62.5784 21.3284 59.9762 19.3091 56.8415 18.0928 53.5584 17.8284 48.5584 17.6484 43.0984 20.2584 40.7784 23.3184 37.2684 27.9184 37.6584 30.9184 37.6584 31.9884 37.6584 33.0584 36.4284 34.9184 37.2884 34.9184 37.8484 34.9184 38.3984 34.9184 38.9584 34.9184L38.9584 34.9184C42.1284 34.8284 48.5984 34.4784 51.8284 32.5784Z" fill="#FFFFFF"/><path d="M69.2484 36.9984C69.1984 36.9284 68.0984 35.3984 66.7584 33.4084 65.6579 31.6035 64.1976 30.0444 62.4684 28.8284 62.1318 28.5833 61.7656 28.3817 61.3784 28.2284 59.5984 29.5784 55.0184 33.0184 52.8384 34.2884 49.3784 36.2884 43.0684 36.8184 38.8384 36.9084 38.948 45.7443 46.1997 52.8183 55.0356 52.7087 62.9276 52.6109 69.5693 46.7727 70.6784 38.9584Z" fill="#FFFFFF"/></g></g></g></g></g><g><g><g><path d="M596 302C595.948 299.495 594.773 297.145 592.8 295.6 588.4 292 582.8 289.6 577.2 288 572.922 286.69 568.474 286.017 564 286 559.531 286.077 555.092 286.75 550.8 288 545.207 289.632 539.932 292.202 535.2 295.6 533.227 297.145 532.052 299.495 532 302L532 318 596 318Z" fill="#FFFFFF"/><path d="M561 261.75C563.6 260.22 570 255.28 570 255.28L570 255.28C571.01 255.367 571.971 255.754 572.76 256.39 574.68 257.738 576.307 259.464 577.54 261.46 578.65 263.12 579.6 264.46 579.89 264.86L579.89 264.86 580 265 580 265C580.5 264 580.48 261.21 580.13 258.67 579.64 255.17 579.24 254.13 577 252.25 575.573 250.956 573.668 250.322 571.75 250.5 569.148 248.481 566.013 247.264 562.73 247 557.73 246.82 552.27 249.43 549.95 252.49 546.44 257.09 546.83 260.09 546.83 261.16 546.83 262.23 545.6 264.09 546.46 264.09 547.02 264.09 547.57 264.09 548.13 264.09L548.13 264.09C551.3 264 557.77 263.65 561 261.75Z" fill="#FFFFFF"/><path d="M578.42 266.17C578.37 266.1 577.27 264.57 575.93 262.58 574.829 260.775 573.369 259.216 571.64 258 571.303 257.755 570.937 257.553 570.55 257.4 568.77 258.75 564.19 262.19 562.01 263.46 558.55 265.46 552.24 265.99 548.01 266.08 548.12 274.916 555.371 281.99 564.207 281.88 572.099 281.783 578.741 275.944 579.85 268.13Z" fill="#FFFFFF"/></g></g></g></g></svg>